<svg xmlns="http://www.w3.org/2000/svg" xmlns:xlink="http://www.w3.org/1999/xlink" width="1405" height="200" viewBox="0 0 1429 224"><path transform="translate(0 100)" d="M50,10.3C53.5,10.3 55.2,8.3 55.2,4.8L55.2,-18.1L80,-18.1C87.8,-17.7 91.5,-21.5 91.5,-29.5L91.5,-51.3C91.9,-59.2 88,-63.2 80,-62.7L55.2,-62.7L55.2,-74.8C55.2,-78.4 53.5,-80.4 50,-80.4C46.5,-80.4 44.8,-78.4 44.8,-74.8L44.8,-62.7L21,-62.7C12.9,-63.2 9.5,-59.3 9.5,-51.3L9.5,-29.5C9.1,-21.7 13,-17.7 21,-18.1L44.8,-18.1L44.8,4.8C44.8,8.3 46.5,10.3 50,10.3ZM19.7,-32.2L19.7,-48.5C19.7,-52.9 20.4,-53.5 24.4,-53.5L44.8,-53.5L44.8,-27.4L24.4,-27.4C20.4,-27.4 19.7,-28 19.7,-32.2ZM55.2,-27.4L55.2,-53.5L76.5,-53.5C80.5,-53.5 81.1,-52.9 81.1,-48.5L81.1,-32.2C81.1,-28 80.5,-27.4 76.5,-27.4L55.2,-27.4Z"></path><path transform="translate(100 100)" d="M9.9,9.3C14.4,9.3 20.9,7.4 29.1,3.8C37.4,0.3 44.4,-4 50,-8.9C59.4,-1.5 71.5,4.1 86.1,8.1C86.9,8.4 89.1,8.9 90,8.9C93.5,8.9 95.2,6.9 95.2,3.3C95.2,0.7 93.1,-1.2 89.2,-2.1C76.7,-4.8 66.2,-9.2 57.3,-15.5C66.5,-25.7 72.9,-39.1 76.6,-56L88.2,-56C92,-56 94.1,-57.6 94.1,-60.6C94.1,-63.7 92,-65.3 88.2,-65.3L54.7,-65.3L54.7,-74C54.7,-78.2 53.2,-80.2 49.5,-80.2C46,-80.2 44.3,-78 44.3,-74L44.3,-65.3L11.8,-65.3C7.9,-65.3 5.8,-63.7 5.8,-60.6C5.8,-57.6 7.9,-56 11.8,-56L65.8,-56C63.4,-41.9 58.1,-30.4 49.9,-21.4C42.3,-29 36.9,-38 33.7,-48.6C32.8,-51.5 30.9,-53.1 28.3,-53.1C25,-53.1 23.2,-51.7 23.2,-49C23.2,-46.7 24.9,-41.8 28.4,-34.4C31.6,-27.4 36.4,-20.8 42.7,-14.9C34.1,-8.4 23.7,-3.9 11.3,-1.3C7,-0.3 4.8,1.3 4.8,4C4.8,7.4 6.5,9.3 9.9,9.3Z"></path><path transform="translate(200 100)" d="M14.3,9.7C17.5,9.7 19.1,7.7 19.1,4.3L19.1,-63C19.1,-65.7 20.1,-66.7 22.6,-66.7L78.4,-66.7C80.9,-66.7 81.9,-65.7 81.9,-63L81.9,-3.7C81.9,-1 81,-0.1 78.7,-0.1L72.4,-0.1C68.8,-0.1 66.8,1.5 66.8,4.6C66.8,7.7 68.8,9.4 72.4,9.4L80.2,9.4C88.1,9.8 92,6 91.5,-1.9L91.5,-65.4C91.9,-72.2 88.6,-75.6 81.3,-75.6L19.7,-75.6C12.7,-76 9.5,-72.5 9.5,-65.4L9.5,4.3C9.5,7.7 11.1,9.7 14.3,9.7ZM20.3,-6.6C20.3,-3.5 21.9,-1.7 25,-1.7C28.5,-1.7 32.4,-8.9 37.7,-22.2C38.7,-19.9 39.5,-17.9 40.1,-16.4C41.4,-12.5 43.1,-10.4 45.4,-10.4C48.6,-10.4 50.3,-12.1 50.3,-15.1C50.3,-15.7 49.9,-17.1 49,-19.1L45.7,-25.7L43.9,-29.5L41.6,-34.1C42.8,-38.5 43.9,-43.4 45,-48.3C46.3,-54.1 46.9,-58 46.9,-60.1C46.9,-62.7 45.5,-64.3 42.6,-64.3C40.7,-64.3 39.4,-63.5 38.8,-62C38.2,-60.4 37.7,-57.7 37.2,-53.8C36.8,-50.5 36.3,-47.5 35.7,-44.8L34.1,-47.6L29.4,-54.9C28.1,-57.3 26.5,-58.7 24.7,-58.7C21.8,-58.7 20.3,-57.4 20.3,-54.9C20.3,-54 21.8,-51.4 24.5,-46.9C26.7,-43.3 29.4,-38.7 32.3,-33.1C29.8,-25.6 26.4,-18.5 22.2,-11.5C21,-9.2 20.3,-7.6 20.3,-6.6ZM46.3,-4.4C46.3,-1.4 47.8,0.3 50.9,0.3C55.2,0.3 60,-7.2 66,-21.4L68.5,-16C70,-12.6 71.1,-10.4 71.9,-9.4C72.6,-8.3 73.9,-7.6 75.3,-7.6C78.3,-7.6 80,-9.3 80,-12.3C80,-14.2 78.1,-18.4 74.6,-24.9L70.2,-32.9C71.4,-36.6 72.7,-41.4 74,-47.3C75.7,-54.6 76.5,-58.9 76.5,-60.2C76.5,-62.8 74.9,-64.4 71.9,-64.4C69.2,-64.4 67.7,-62.5 67.3,-59.3C66.3,-52.6 65.3,-47.2 64.2,-43.2C57.9,-53.2 53.9,-58.6 51.5,-58.6C48.6,-58.6 47,-57.1 47,-54.7C47,-53.8 48.6,-51 51.6,-46.3C54.7,-41.7 57.7,-36.8 60.4,-31.8C56.6,-21.7 52.5,-13.9 47.9,-8.1C46.9,-6.9 46.3,-5.6 46.3,-4.4Z"></path><path transform="translate(300 100)" d="M37.1,9.7L43.9,9.7C52.1,9.7 55.8,6 55.8,-2.1L55.8,-18.3L88.7,-18.3C92.5,-18.3 94.3,-19.7 94.3,-22.7C94.3,-25.7 92.5,-27.1 88.7,-27.1L55.8,-27.1L55.8,-29.7C55.8,-30.9 56.4,-31.7 58.1,-32.8C62.3,-35.4 68.2,-38.5 77.5,-43.2C80.1,-44.5 81.3,-46.2 81.3,-48.3C81.3,-51.4 78.7,-52.9 73.3,-52.9L23.4,-52.9C20.2,-52.9 18.6,-51.6 18.6,-48.7C18.6,-45.8 20.2,-44.5 23.4,-44.5L63.2,-44.5L62.6,-44.2C58.9,-42.4 57.6,-41.8 56.4,-41.3C55,-40.6 53.9,-40 49.6,-37.9C48.9,-37.5 48.6,-37.3 48.3,-37C46.6,-35.4 46,-33.4 46,-30.6L46,-27.1L11.3,-27.1C7.5,-27.1 5.7,-25.7 5.7,-22.7C5.7,-19.7 7.5,-18.3 11.3,-18.3L46,-18.3L46,-3.1C46,-0.6 45.4,-0 43.1,-0L37.1,-0C33.4,-0 31.6,1.7 31.6,4.9C31.6,8.2 33.4,9.7 37.1,9.7ZM6.6,-49.5C6.6,-45.9 8.1,-44.1 11.5,-44.1C14.9,-44.1 16.4,-45.9 16.4,-49.5L16.4,-56.3C16.4,-59.4 17.3,-60.3 20.3,-60.3L79.6,-60.3C82.6,-60.3 83.6,-59.4 83.6,-56.3L83.6,-49.5C83.6,-45.9 85.1,-44.1 88.4,-44.1C91.8,-44.1 93.3,-45.9 93.3,-49.5L93.3,-56.9C93.3,-65.3 90.2,-69.2 82.9,-69.2L55.2,-69.2L55.2,-74.4C55.2,-78.2 53.6,-80.1 50,-80.1C46.3,-80.1 44.7,-78.2 44.7,-74.4L44.7,-69.2L17,-69.2C9.7,-69.2 6.6,-65.3 6.6,-56.9L6.6,-49.5Z"></path><path transform="translate(400 100)" d="M66.2,10.1C69.6,10.1 71.3,8 71.3,4.4L71.3,-39.1L89.7,-39.1C93.3,-39.1 95.3,-40.8 95.3,-43.9C95.3,-47 93.3,-48.7 89.7,-48.7L71.3,-48.7L71.3,-74.3C71.3,-78 69.6,-80.1 66.2,-80.1C62.8,-80.1 61,-77.9 61,-74.3L61,-48.7L43.2,-48.7C39.6,-48.7 37.6,-47 37.6,-43.9C37.6,-40.8 39.6,-39.1 43.2,-39.1L61,-39.1L61,4.4C61,8 62.7,10.1 66.2,10.1ZM4.9,-46.5C4.9,-43.5 6.5,-41.7 9.7,-41.7L20.2,-41.7C22,-41.7 22.6,-41.1 22.6,-39.2L22.6,-3.4C21.7,-2.9 20.8,-2.5 19.8,-2.1C17.3,-0.9 16,0.8 16,2.7C16,5.7 17.5,7.5 20.4,7.5C22.1,7.5 24.5,6.7 27.2,5.2L32.4,2.4C33.5,1.7 34.6,1.1 35.6,0.5L39.3,-1.6C40.2,-2.1 41,-2.5 41.8,-3L43.4,-3.9C45,-4.9 46,-5.7 46.6,-6.2C47.6,-7.2 48.1,-8.3 48.1,-9.3C48.1,-11.7 46.6,-13.2 43.9,-13.2C43,-13.2 42.1,-12.9 41.5,-12.6C39.6,-11.5 37.8,-10.6 35.9,-9.8L32.1,-7.8L32.1,-41.7C32.1,-47.9 29.1,-51.3 23,-51.3L9.7,-51.3C6.5,-51.3 4.9,-49.5 4.9,-46.5ZM13.3,-74.5C13.3,-73.2 14.1,-71.9 15.8,-70.3C18.6,-67.7 21.2,-64.4 25,-59.9C26.1,-58.3 27.6,-57.3 29.1,-57.3C32.3,-57.3 34.1,-59 34.1,-62C34.1,-63.3 33.4,-64.9 32,-66.6C28.9,-70.1 25.7,-73.3 23.4,-75.6C21.1,-77.7 19.1,-78.9 17.7,-78.9C14.9,-78.9 13.3,-77.3 13.3,-74.5Z"></path><path transform="translate(500 100)" d="M56.4,8C61.1,7.6 63.4,3.1 63.4,-4.9C63.4,-7.4 63.2,-10 62.9,-12.9C62.6,-16 61.4,-17.6 58.1,-17.6C55.4,-17.6 54.1,-15.8 54.1,-12.8L54.2,-10.3C54.3,-9.4 54.4,-8.7 54.4,-7.9C54.7,-4.1 54.2,-2.8 53.2,-2.9C49.6,-3.1 45.2,-6.9 40,-14.7C43.2,-18.6 46.2,-23.3 49.2,-28.7C52.1,-33.8 53.6,-37.3 53.6,-39.2C53.6,-41.8 52.2,-43.5 49.2,-43.5C46.9,-43.5 45.1,-42 44,-39.6C41,-33.3 38.2,-28.2 35.7,-24.4C33.2,-31.2 31.4,-38.5 30.5,-46.5L54.1,-48.8C57.4,-49.2 59.3,-51.1 59.3,-53.5C59.3,-56.6 57.2,-58.2 54,-57.8L48,-57.2C41.6,-56.5 35.5,-55.9 29.7,-55.4L29.1,-64.8C29,-68.1 28.9,-70.6 28.8,-72.3C28.7,-72.7 28.7,-73 28.7,-73.2C28.6,-76.6 26.7,-78.5 23.8,-78.5C20.3,-78.5 18.7,-76.2 18.8,-72C19,-66.2 19.4,-60.4 19.9,-54.5L9.7,-53.6C6.6,-53.4 5,-51.7 5,-49.1C5,-46.1 6.3,-44.6 9.6,-44.6C10.8,-44.6 13.8,-44.9 18.5,-45.4L21,-45.7C22.7,-33 25.3,-23.1 28.7,-15.8C23.5,-10.5 18.3,-6.7 13.3,-4.3L8.2,-2.1C6.7,-0.8 6,0.4 6,2.1C6,5.3 7.5,7.2 10.6,7.2C13.4,7.2 17.3,5.4 22.2,1.9C26.9,-1.6 30.7,-4.7 33.6,-7.5C40.1,2 47.7,8.7 56.4,8ZM34.2,-72.8C34.2,-71.4 35,-69.8 36.6,-68.2L39,-65.8L41.9,-63.2C43.2,-61.8 44.8,-60.9 46.2,-60.9C48.6,-60.9 50.4,-62.7 50.4,-64.9C50.4,-67.4 48.8,-69.2 44.8,-72.8C42.3,-75.1 40.1,-76.4 38.6,-76.4C36.4,-76.4 34.2,-74.5 34.2,-72.8ZM62.7,-19.5C62.7,-16 64.3,-14 67.5,-14C70.7,-14 72.3,-16 72.3,-19.5L72.3,-67.2C72.3,-70.8 70.7,-72.7 67.4,-72.7C64.3,-72.7 62.7,-70.7 62.7,-67.2L62.7,-19.5ZM66.9,4.6C66.9,7.8 68.9,9.5 72.7,9.5L79.2,9.5C87,9.9 91,6 90.5,-1.9L90.5,-73.3C90.5,-76.8 88.9,-78.8 85.7,-78.8C82.4,-78.8 80.8,-76.8 80.8,-73.3L80.8,-4.2C80.8,-1.3 79.8,-0.3 77.1,-0.3L72.7,-0.3C68.9,-0.3 66.9,1.4 66.9,4.6Z"></path><path transform="translate(0 200)" d="M29.7,1.3C32.6,1.3 35.2,-1.2 35.2,-3.9L35.2,-59.1L54,-59.1C56.9,-59.1 59.2,-61.3 59.2,-64C59.2,-66.6 56.9,-69 54,-69L5.4,-69C2.4,-69 0.3,-66.6 0.3,-64C0.3,-61.3 2.5,-59.1 5.4,-59.1L24.3,-59.1L24.3,-3.9C24.3,-1.2 26.7,1.3 29.7,1.3Z"></path><path transform="translate(58 200)" d="M12.1,1.3C15.1,1.3 17.6,-1.2 17.6,-3.9L17.6,-33C22.4,-38.9 26.7,-41.8 32.6,-41.8C39.2,-41.8 42.4,-38.4 42.4,-30.7L42.4,-3.9C42.4,-1.2 44.8,1.3 47.8,1.3C50.7,1.3 53.2,-1.2 53.2,-3.9L53.2,-31.6C53.2,-39 50.2,-45.4 44.7,-48.9C41.9,-50.6 38.5,-51.6 34.8,-51.6C27.9,-51.6 22.5,-48.9 17.6,-44.2L17.6,-67.3C17.6,-70 15.1,-72.6 12.1,-72.6C9.2,-72.6 6.7,-70 6.7,-67.3L6.7,-3.9C6.7,-1.2 9.2,1.3 12.1,1.3Z"></path><path transform="translate(117 200)" d="M30,1.8C37.5,1.8 42,0.3 47.5,-2.6C49.5,-3.8 50.6,-5.2 50.6,-6.9C50.6,-9.6 48.3,-11.5 45.7,-11.5C44.9,-11.5 44,-11.4 43.5,-11C39.4,-9 35.9,-8.1 30.8,-8.1C21.5,-8.1 16.1,-12.4 14.8,-21L46.8,-21C50,-21 52.3,-23.4 52.3,-26.2C52.3,-35.5 48.2,-43.5 41.1,-48.2C37.5,-50.4 33,-51.6 28,-51.6C17.6,-51.6 10,-46.2 6.3,-38C4.5,-33.7 3.7,-29.3 3.7,-24.9C3.7,-8.2 13.5,1.8 30,1.8ZM14.8,-29.8C15.3,-35.2 17.9,-39 21.9,-41.1C24.1,-42.1 26,-42.5 28,-42.5C32.3,-42.5 36.4,-40.5 39.2,-36.5C40.4,-34.9 41.1,-32.9 41.4,-30.3C41.5,-29.8 41.5,-29.8 41.1,-29.8L14.8,-29.8Z"></path><path transform="translate(172 200)" d=""></path><path transform="translate(201 200)" d="M39.6,1.8C48.3,1.8 54.9,-0.3 62.2,-4.4C64.1,-5.4 65,-6.9 65,-8.8C65,-11.2 62.9,-13.3 60.1,-13.3C59.3,-13.3 58.4,-13.2 57.9,-12.8C51.9,-9.7 47.1,-8.3 40.4,-8.3C29.9,-8.3 22.1,-12.8 18.2,-20.8C16.3,-24.6 15.3,-29 15.3,-34.1C15.3,-44.4 19.3,-52.2 26.8,-56.5C30.5,-58.8 34.9,-59.8 40.4,-59.8C47.1,-59.8 51.9,-58.5 57.9,-55.4C58.4,-55 59.3,-54.9 60.1,-54.9C62.9,-54.9 65,-57.1 65,-59.4C65,-61.4 64.1,-63 62.2,-63.8C54.9,-67.9 48.3,-69.9 39.6,-69.9C26.1,-69.9 15,-63.7 9,-53C5.9,-47.6 4.4,-41.3 4.4,-34.1C4.4,-19.8 10.8,-8.5 21.7,-2.6C26.8,0.3 33,1.8 39.6,1.8Z"></path><path transform="translate(269 200)" d="M12.1,1.3C15.1,1.3 17.6,-1.2 17.6,-3.9L17.6,-33C22.4,-38.9 26.7,-41.8 32.6,-41.8C39.2,-41.8 42.4,-38.4 42.4,-30.7L42.4,-3.9C42.4,-1.2 44.8,1.3 47.8,1.3C50.7,1.3 53.2,-1.2 53.2,-3.9L53.2,-31.6C53.2,-39 50.2,-45.4 44.7,-48.9C41.9,-50.6 38.5,-51.6 34.8,-51.6C27.9,-51.6 22.5,-48.9 17.6,-44.2L17.6,-67.3C17.6,-70 15.1,-72.6 12.1,-72.6C9.2,-72.6 6.7,-70 6.7,-67.3L6.7,-3.9C6.7,-1.2 9.2,1.3 12.1,1.3Z"></path><path transform="translate(328 200)" d="M11.9,-59.2L12.5,-59.2C15.8,-59.2 18.5,-61.9 18.5,-64.9L18.5,-65.3C18.5,-68.4 15.8,-71.1 12.5,-71.1L11.9,-71.1C8.7,-71.1 5.9,-68.4 5.9,-65.3L5.9,-64.9C5.9,-61.9 8.7,-59.2 11.9,-59.2ZM6.7,-3.9C6.7,-1.2 9.2,1.3 12.1,1.3C15.1,1.3 17.6,-1.2 17.6,-3.9L17.6,-45.8C17.6,-48.8 15.3,-51.1 12.1,-51.1C9.2,-51.1 6.7,-48.6 6.7,-45.8L6.7,-3.9Z"></path><path transform="translate(352 200)" d="M12.1,1.3C15.1,1.3 17.6,-1.2 17.6,-3.9L17.6,-33C22.4,-38.9 26.7,-41.8 32.6,-41.8C39.2,-41.8 42.4,-38.4 42.4,-30.7L42.4,-3.9C42.4,-1.2 44.8,1.3 47.8,1.3C50.7,1.3 53.2,-1.2 53.2,-3.9L53.2,-31.6C53.2,-39 50.2,-45.4 44.7,-48.9C41.9,-50.6 38.5,-51.6 34.8,-51.6C27.9,-51.6 22.5,-48.9 17.6,-44.2L17.6,-45.8C17.6,-48.6 15.1,-51.1 12.1,-51.1C9.2,-51.1 6.7,-48.6 6.7,-45.8L6.7,-3.9C6.7,-1.2 9.2,1.3 12.1,1.3Z"></path><path transform="translate(411 200)" d="M30,1.8C37.5,1.8 42,0.3 47.5,-2.6C49.5,-3.8 50.6,-5.2 50.6,-6.9C50.6,-9.6 48.3,-11.5 45.7,-11.5C44.9,-11.5 44,-11.4 43.5,-11C39.4,-9 35.9,-8.1 30.8,-8.1C21.5,-8.1 16.1,-12.4 14.8,-21L46.8,-21C50,-21 52.3,-23.4 52.3,-26.2C52.3,-35.5 48.2,-43.5 41.1,-48.2C37.5,-50.4 33,-51.6 28,-51.6C17.6,-51.6 10,-46.2 6.3,-38C4.5,-33.7 3.7,-29.3 3.7,-24.9C3.7,-8.2 13.5,1.8 30,1.8ZM14.8,-29.8C15.3,-35.2 17.9,-39 21.9,-41.1C24.1,-42.1 26,-42.5 28,-42.5C32.3,-42.5 36.4,-40.5 39.2,-36.5C40.4,-34.9 41.1,-32.9 41.4,-30.3C41.5,-29.8 41.5,-29.8 41.1,-29.8L14.8,-29.8Z"></path><path transform="translate(466 200)" d="M23.8,1.8C36,1.8 43.7,-4.6 43.7,-13.5C43.7,-20.2 39.9,-24.6 34.2,-26.9C31.5,-27.7 28.3,-28.8 24.7,-29.7C21,-30.6 18.3,-31.4 16.4,-32.2C15,-33 14.3,-34.1 14.3,-35.8C14.3,-39.6 18,-41.9 24.5,-41.9C27.9,-41.9 31.5,-41.3 35.4,-40.1L36.8,-39.9C39.7,-39.9 41.8,-42.3 41.8,-44.6C41.8,-46.5 40.7,-48.4 38.3,-49C34,-50.8 29.1,-51.6 23.8,-51.6C11.3,-51.6 3.8,-45 3.8,-35.4C3.8,-29 7.7,-24.5 13.7,-22.2C16.2,-21.3 19.4,-20.3 23.2,-19.4C27,-18.5 29.6,-17.7 31.2,-16.9C32.5,-16.2 33.1,-15.4 33.1,-14.2C33.1,-9.9 30.1,-8 23.2,-8C18.4,-8 14.8,-8.9 10.4,-10.9C9.8,-11.2 9,-11.3 8.2,-11.3C5.3,-11.3 3.4,-9 3.4,-6.6C3.4,-5 4.1,-3.7 5.4,-2.8C11,0.2 17.2,1.8 23.8,1.8Z"></path><path transform="translate(513 200)" d="M30,1.8C37.5,1.8 42,0.3 47.5,-2.6C49.5,-3.8 50.6,-5.2 50.6,-6.9C50.6,-9.6 48.3,-11.5 45.7,-11.5C44.9,-11.5 44,-11.4 43.5,-11C39.4,-9 35.9,-8.1 30.8,-8.1C21.5,-8.1 16.1,-12.4 14.8,-21L46.8,-21C50,-21 52.3,-23.4 52.3,-26.2C52.3,-35.5 48.2,-43.5 41.1,-48.2C37.5,-50.4 33,-51.6 28,-51.6C17.6,-51.6 10,-46.2 6.3,-38C4.5,-33.7 3.7,-29.3 3.7,-24.9C3.7,-8.2 13.5,1.8 30,1.8ZM14.8,-29.8C15.3,-35.2 17.9,-39 21.9,-41.1C24.1,-42.1 26,-42.5 28,-42.5C32.3,-42.5 36.4,-40.5 39.2,-36.5C40.4,-34.9 41.1,-32.9 41.4,-30.3C41.5,-29.8 41.5,-29.8 41.1,-29.8L14.8,-29.8Z"></path><path transform="translate(568 200)" d=""></path><path transform="translate(597 200)" d="M27.9,1.3C31.2,1.3 33.8,-1 34.7,-3.7L49.4,-50.7L64.1,-3.7C65,-1 67.6,1.3 70.9,1.3C74,1.3 76.5,-0.7 77.6,-3.7L96.8,-62.5C97,-63.4 97.1,-64.1 97.1,-64.6C97.1,-67.2 94.8,-69.5 91.8,-69.5C89.2,-69.5 87.2,-67.8 86.4,-65.3L71,-14.4L55.5,-65.1C54.7,-67.7 52.2,-69.5 49.4,-69.5C46.7,-69.5 44.1,-67.7 43.3,-65.1L27.8,-14.4L12.4,-65.3C11.6,-67.8 9.6,-69.5 7,-69.5C4.1,-69.5 1.7,-67.2 1.7,-64.6C1.7,-64.1 1.8,-63.4 2,-62.5L21.3,-3.7C22.4,-0.7 24.8,1.3 27.9,1.3Z"></path><path transform="translate(692 200)" d="M30,1.8C37.5,1.8 42,0.3 47.5,-2.6C49.5,-3.8 50.6,-5.2 50.6,-6.9C50.6,-9.6 48.3,-11.5 45.7,-11.5C44.9,-11.5 44,-11.4 43.5,-11C39.4,-9 35.9,-8.1 30.8,-8.1C21.5,-8.1 16.1,-12.4 14.8,-21L46.8,-21C50,-21 52.3,-23.4 52.3,-26.2C52.3,-35.5 48.2,-43.5 41.1,-48.2C37.5,-50.4 33,-51.6 28,-51.6C17.6,-51.6 10,-46.2 6.3,-38C4.5,-33.7 3.7,-29.3 3.7,-24.9C3.7,-8.2 13.5,1.8 30,1.8ZM14.8,-29.8C15.3,-35.2 17.9,-39 21.9,-41.1C24.1,-42.1 26,-42.5 28,-42.5C32.3,-42.5 36.4,-40.5 39.2,-36.5C40.4,-34.9 41.1,-32.9 41.4,-30.3C41.5,-29.8 41.5,-29.8 41.1,-29.8L14.8,-29.8Z"></path><path transform="translate(747 200)" d="M33.3,1.8C42,1.8 50,-2.9 54.5,-10.8C56.8,-14.8 57.9,-19.5 57.9,-24.9C57.9,-35.4 53.2,-44 45.2,-48.5C41.7,-50.5 37.6,-51.6 33.3,-51.6C27.4,-51.6 22.1,-49.6 17.6,-45.6L17.6,-67.3C17.6,-70.1 15.4,-72.6 12.1,-72.6C9.2,-72.6 6.7,-70 6.7,-67.3L6.7,-3.9C6.7,-1.2 9.2,1.3 12.1,1.3C15.1,1.3 17.6,-1.2 17.6,-3.9L17.6,-4.3C22.1,-0.3 27.4,1.8 33.3,1.8ZM17.6,-14.8L17.6,-35C21.6,-39.2 26.7,-41.7 32,-41.7C41.5,-41.7 47,-35.6 47,-24.9C47,-14.2 41.5,-8.1 32,-8.1C26.7,-8.1 21.6,-10.6 17.6,-14.8Z"></path><path transform="translate(809 200)" d=""></path><path transform="translate(838 200)" d="M13.9,1.3C16.8,1.3 19.4,-1.2 19.4,-3.9L19.4,-29.2L48.4,-29.2C51.3,-29.2 53.6,-31.4 53.6,-34.1C53.6,-36.7 51.3,-39.1 48.4,-39.1L19.4,-39.1L19.4,-58.6C19.4,-59.1 19.4,-59.1 19.6,-59.1L51.9,-59.1C54.7,-59.1 57.1,-61.2 57.1,-64C57.1,-66.6 54.7,-69 51.9,-69L13.9,-69C10.8,-69 8.5,-66.4 8.5,-63.7L8.5,-3.9C8.5,-1.2 10.9,1.3 13.9,1.3Z"></path><path transform="translate(893 200)" d="M29.7,1.8C39.7,1.8 48,-2.9 52.5,-11.1C54.7,-15.1 55.7,-19.7 55.7,-24.9C55.7,-35.2 51.2,-43.6 43.2,-48.3C39.4,-50.4 34.7,-51.6 29.7,-51.6C19.5,-51.6 11.1,-46.9 6.9,-38.8C4.7,-34.7 3.7,-30.1 3.7,-24.9C3.7,-14.7 8.1,-6.2 16.1,-1.5C19.9,0.6 24.6,1.8 29.7,1.8ZM14.6,-25C14.6,-32.8 17.6,-37.8 22.4,-40.2C24.9,-41.4 27.1,-41.9 29.7,-41.9C35.3,-41.9 39.8,-39.4 42.6,-34.6C44,-32.3 44.8,-29 44.8,-25C44.8,-17.2 41.8,-12.1 37,-9.7C34.5,-8.4 32.3,-7.9 29.7,-7.9C24.1,-7.9 19.6,-10.3 16.8,-15.2C15.4,-17.7 14.6,-21 14.6,-25Z"></path><path transform="translate(952 200)" d="M12.1,1.3C15.1,1.3 17.6,-1.2 17.6,-3.9L17.6,-33C22.4,-38.9 26.7,-41.8 32.6,-41.8C39.2,-41.8 42.4,-38.4 42.4,-30.7L42.4,-3.9C42.4,-1.2 44.8,1.3 47.8,1.3C50.7,1.3 53.2,-1.2 53.2,-3.9L53.2,-31.6C53.2,-39 50.2,-45.4 44.7,-48.9C41.9,-50.6 38.5,-51.6 34.8,-51.6C27.9,-51.6 22.5,-48.9 17.6,-44.2L17.6,-45.8C17.6,-48.6 15.1,-51.1 12.1,-51.1C9.2,-51.1 6.7,-48.6 6.7,-45.8L6.7,-3.9C6.7,-1.2 9.2,1.3 12.1,1.3Z"></path><path transform="translate(1010 200)" d="M31.7,-8.5C31.3,-8.5 30.9,-8.4 30.5,-8.4C30.3,-8.3 30.1,-8.3 30,-8.3L29.7,-8.2L29.6,-8.2C28.3,-7.8 27.1,-7.6 25.9,-7.6C22.1,-7.6 20.5,-8.5 20.5,-12.7L20.5,-40.9L30.6,-40.9C33.2,-40.9 35.4,-43.1 35.4,-45.5C35.4,-48.2 33.2,-50.1 30.6,-50.1L20.5,-50.1L20.5,-56.3C20.5,-59.5 18.5,-61.6 15.1,-61.6C11.8,-61.6 9.6,-59.8 9.6,-56.3L9.6,-50.1L5.7,-50.1C2.7,-50.1 0.9,-48.3 0.9,-45.5C0.9,-42.8 2.6,-40.9 5.7,-40.9L9.6,-40.9L9.6,-11.9C9.6,-2.8 14.8,1.8 24.9,1.8C27.9,1.8 30.9,1.1 33.4,-0.1C35.3,-1.2 36.3,-2.5 36.3,-4.2C36.3,-6.5 34.2,-8.5 31.7,-8.5ZM29.5,-8.1C29.5,-8.1 29.6,-8.2 29.7,-8.2L29.5,-8.1Z"></path><path transform="translate(1047 200)" d=""></path><path transform="translate(1076 200)" d="M13.9,1.3C16.8,1.3 19.4,-1.2 19.4,-3.9L19.4,-24L36.1,-24C48.4,-24 56.9,-28.6 60.6,-35.6C62.4,-38.9 63.2,-42.5 63.2,-46.5C63.2,-55 59.3,-61.6 51.7,-65.7C47.7,-67.8 42.3,-69 36.1,-69L13.9,-69C10.8,-69 8.5,-66.4 8.5,-63.7L8.5,-3.9C8.5,-1.2 10.9,1.3 13.9,1.3ZM19.4,-34L19.4,-58.5C19.4,-59 19.4,-59 19.6,-59L35.3,-59C46.6,-59 52.3,-54.7 52.3,-46.5C52.3,-38.1 46.7,-34 35.3,-34L19.4,-34Z"></path><path transform="translate(1141 200)" d="M12.1,1.3C15.1,1.3 17.6,-1.2 17.6,-3.9L17.6,-33.4C21.1,-38.7 26,-41.4 31.7,-41.4L32.2,-41.4C35.4,-41.4 37.7,-43.6 37.7,-46.4C37.7,-49.1 35.5,-51.6 32.4,-51.6L31.9,-51.6C26.6,-51.6 21.8,-49.1 17.6,-44.3L17.6,-45.8C17.6,-48.6 15.1,-51.1 12.1,-51.1C9.2,-51.1 6.7,-48.6 6.7,-45.8L6.7,-3.9C6.7,-1.2 9.2,1.3 12.1,1.3Z"></path><path transform="translate(1177 200)" d="M29.7,1.8C39.7,1.8 48,-2.9 52.5,-11.1C54.7,-15.1 55.7,-19.7 55.7,-24.9C55.7,-35.2 51.2,-43.6 43.2,-48.3C39.4,-50.4 34.7,-51.6 29.7,-51.6C19.5,-51.6 11.1,-46.9 6.9,-38.8C4.7,-34.7 3.7,-30.1 3.7,-24.9C3.7,-14.7 8.1,-6.2 16.1,-1.5C19.9,0.6 24.6,1.8 29.7,1.8ZM14.6,-25C14.6,-32.8 17.6,-37.8 22.4,-40.2C24.9,-41.4 27.1,-41.9 29.7,-41.9C35.3,-41.9 39.8,-39.4 42.6,-34.6C44,-32.3 44.8,-29 44.8,-25C44.8,-17.2 41.8,-12.1 37,-9.7C34.5,-8.4 32.3,-7.9 29.7,-7.9C24.1,-7.9 19.6,-10.3 16.8,-15.2C15.4,-17.7 14.6,-21 14.6,-25Z"></path><path transform="translate(1236 200)" d="M12.4,-59.2L13,-59.2C16.2,-59.2 19,-61.9 19,-64.9L19,-65.3C19,-68.4 16.2,-71.1 13,-71.1L12.4,-71.1C9.2,-71.1 6.4,-68.4 6.4,-65.3L6.4,-64.9C6.4,-61.9 9.2,-59.2 12.4,-59.2ZM-5.4,19C-5.4,20.9 -4.2,22.7 -2.2,23.4C-0.3,23.9 1.9,24.2 4.3,24.2C13.2,24.2 18.1,19.1 18.1,10.1L18.1,-45.7C18.1,-48.7 15.8,-51 12.6,-51C9.6,-51 7.2,-48.5 7.2,-45.7L7.2,9.9C7.2,14 6.2,14.8 2.2,14.8C1.7,14.8 1.3,14.8 0.9,14.7L0.6,14.7L-0.6,14.5C-3.2,14.4 -5.4,16.8 -5.4,19Z"></path><path transform="translate(1261 200)" d="M30,1.8C37.5,1.8 42,0.3 47.5,-2.6C49.5,-3.8 50.6,-5.2 50.6,-6.9C50.6,-9.6 48.3,-11.5 45.7,-11.5C44.9,-11.5 44,-11.4 43.5,-11C39.4,-9 35.9,-8.1 30.8,-8.1C21.5,-8.1 16.1,-12.4 14.8,-21L46.8,-21C50,-21 52.3,-23.4 52.3,-26.2C52.3,-35.5 48.2,-43.5 41.1,-48.2C37.5,-50.4 33,-51.6 28,-51.6C17.6,-51.6 10,-46.2 6.3,-38C4.5,-33.7 3.7,-29.3 3.7,-24.9C3.7,-8.2 13.5,1.8 30,1.8ZM14.8,-29.8C15.3,-35.2 17.9,-39 21.9,-41.1C24.1,-42.1 26,-42.5 28,-42.5C32.3,-42.5 36.4,-40.5 39.2,-36.5C40.4,-34.9 41.1,-32.9 41.4,-30.3C41.5,-29.8 41.5,-29.8 41.1,-29.8L14.8,-29.8Z"></path><path transform="translate(1316 200)" d="M30.8,1.8C37.4,1.8 42.4,-0.1 47.3,-3C48.9,-4.1 49.6,-5.5 49.6,-7.1C49.6,-9.4 47.5,-11.8 44.9,-11.8C44,-11.8 43.1,-11.5 42.4,-11.1C37.9,-8.8 35.8,-8.1 31.5,-8.1C21,-8.1 14.6,-14.4 14.6,-24.9C14.6,-35.4 21,-41.7 31.5,-41.7C35.8,-41.7 37.9,-41 42.4,-38.7C43.1,-38.3 44,-38 44.9,-38C47.5,-38 49.6,-40.4 49.6,-42.7C49.6,-44.3 48.9,-45.7 47.3,-46.8C42.4,-49.7 37.4,-51.6 30.8,-51.6C20.8,-51.6 12.2,-46.9 7.4,-39.2C4.9,-35 3.7,-30.3 3.7,-24.9C3.7,-14.4 8.7,-6 17.4,-1.5C21.4,0.6 26,1.8 30.8,1.8Z"></path><path transform="translate(1368 200)" d="M31.7,-8.5C31.3,-8.5 30.9,-8.4 30.5,-8.4C30.3,-8.3 30.1,-8.3 30,-8.3L29.7,-8.2L29.6,-8.2C28.3,-7.8 27.1,-7.6 25.9,-7.6C22.1,-7.6 20.5,-8.5 20.5,-12.7L20.5,-40.9L30.6,-40.9C33.2,-40.9 35.4,-43.1 35.4,-45.5C35.4,-48.2 33.2,-50.1 30.6,-50.1L20.5,-50.1L20.5,-56.3C20.5,-59.5 18.5,-61.6 15.1,-61.6C11.8,-61.6 9.6,-59.8 9.6,-56.3L9.6,-50.1L5.7,-50.1C2.7,-50.1 0.9,-48.3 0.9,-45.5C0.9,-42.8 2.6,-40.9 5.7,-40.9L9.6,-40.9L9.6,-11.9C9.6,-2.8 14.8,1.8 24.9,1.8C27.9,1.8 30.9,1.1 33.4,-0.1C35.3,-1.2 36.3,-2.5 36.3,-4.2C36.3,-6.5 34.2,-8.5 31.7,-8.5ZM29.5,-8.1C29.5,-8.1 29.6,-8.2 29.7,-8.2L29.5,-8.1Z"></path></svg>