<svg xmlns="http://www.w3.org/2000/svg" xmlns:xlink="http://www.w3.org/1999/xlink" width="1354" height="200" viewBox="0 0 1378 224"><path transform="translate(0 100)" d="M56.1,-17.1L83.9,-17.1C89.3,-17.1 91.9,-19.7 91.9,-25.1L91.9,-57.7C91.9,-63.1 89.3,-65.7 83.9,-65.7L56.1,-65.7L56.1,-80L43.9,-80L43.9,-65.7L16,-65.7C10.6,-65.7 8,-63.1 8,-57.7L8,-25.1C8,-19.7 10.6,-17.1 16,-17.1L43.9,-17.1L43.9,10L56.1,10L56.1,-17.1ZM56.1,-27.5L56.1,-55.3L78.2,-55.3C79.2,-55.3 79.7,-54.8 79.7,-53.8L79.7,-29C79.7,-28 79.2,-27.5 78.2,-27.5L56.1,-27.5ZM43.9,-27.5L21.7,-27.5C20.7,-27.5 20.2,-28 20.2,-29L20.2,-53.8C20.2,-54.8 20.7,-55.3 21.7,-55.3L43.9,-55.3L43.9,-27.5Z"></path><path transform="translate(100 100)" d="M80.6,-55.3L93,-55.3L93,-65.7L55.8,-65.7L55.8,-80L44,-80L44,-65.7L6.3,-65.7L7.1,-55.3L18.7,-55.3C23.4,-40.3 30.4,-27.8 40.5,-17.6C31.5,-11.8 19.8,-6.9 4.4,-2.5L7.5,10C25.6,5.1 39.7,-1 50.6,-9C61.5,-1 75.2,5.2 92.3,10L95.4,-2.4C81.3,-5.3 69.6,-10.6 60.1,-17.2C69.9,-27.2 76.3,-39.6 80.6,-55.3ZM68.3,-55.3C64.4,-43.3 59.1,-33.4 50.3,-25.2C40.8,-34.3 34.5,-44.9 31,-55.3L68.3,-55.3Z"></path><path transform="translate(200 100)" d="M70.1,-33.4C73.8,-41.7 76.3,-50.5 77.9,-60.7L68.1,-60.7C67.2,-55.6 66.2,-51 64.9,-46.6C63.2,-50.7 61.4,-54.7 59.4,-58.8L49.9,-58.8C53.8,-50.5 57.1,-42.5 60.1,-34.2C57.2,-28.4 53.6,-22.8 48.9,-16.8L51.9,-5.8C56.8,-11.4 60.8,-16.7 64.1,-22.1C65.5,-17.7 66.9,-13.1 68.2,-8.3L78.1,-8.3C75.6,-17.4 73,-25.5 70.1,-33.4ZM41.5,-32.4C45.4,-41 48,-50.1 49.7,-60.7L39.9,-60.7C38.9,-55.1 37.8,-50.1 36.3,-45.4C34.4,-49.8 32.4,-54.3 30.2,-58.8L21.3,-58.8L21.3,-64.6C21.3,-65.6 21.8,-66.1 22.8,-66.1L77.1,-66.1C78.1,-66.1 78.6,-65.6 78.6,-64.6L78.6,-6.3C78.6,-3.1 76.9,-1.4 73.6,-1.2C69.4,-0.9 63.1,-1.5 56.6,-3L59.3,7.3C65.4,8.6 72.7,9.4 78.8,9.1C85.9,8.8 90.6,3.8 90.6,-2.6L90.6,-68.5C90.6,-73.9 88,-76.5 82.6,-76.5L17.3,-76.5C11.9,-76.5 9.3,-73.9 9.3,-68.5L9.3,10L21.3,10L21.3,-14.6L23.7,-5.8C28.3,-11.1 32.2,-16.2 35.5,-21.4C36.8,-17.2 38.1,-12.9 39.4,-8.3L49.3,-8.3C46.8,-17 44.2,-24.8 41.5,-32.4ZM31.4,-33.2C28.8,-28 25.5,-22.9 21.3,-17.6L21.3,-57.5C25.1,-49.3 28.4,-41.5 31.4,-33.2Z"></path><path transform="translate(300 100)" d="M56.9,-28.8C57.2,-29.3 57.6,-29.7 58.2,-30L79,-41.1C84.5,-44 83.2,-52.9 76.7,-52.9L13.7,-52.9L14.5,-42.5L61.6,-42.5L49.8,-36.5C46.1,-34.3 44.2,-32.4 44,-28.8L4.6,-28.8L5.4,-18.2L44,-18.2L44,-4.1C44,-2.1 42.6,-0.8 40.6,-0.5C36.3,-0 29.1,-0.6 24.4,-1.6L27.1,8.5C32.1,9.6 39.6,9.9 45.2,9.7C51,9.5 56,4.5 56,-1.6L56,-18.2L95.1,-18.2L95.1,-28.8L56.9,-28.8ZM55.8,-72.7L55.8,-80L43.8,-80L43.8,-72.7L14.9,-72.7C10.1,-72.7 6.9,-69.5 6.9,-64.7L6.9,-53.6L18.9,-53.6L18.9,-61C18.9,-61.9 19.5,-62.5 20.4,-62.5L79.4,-62.5C80.3,-62.5 80.9,-61.9 80.9,-61L80.9,-53.6L92.9,-53.6L92.9,-64.7C92.9,-69.5 89.7,-72.7 84.9,-72.7L55.8,-72.7Z"></path><path transform="translate(400 100)" d="M31.7,-60.3L31.7,-71.8L8.8,-79.5L8.8,-68L31.7,-60.3ZM72.2,-37.5L95.1,-37.5L95.1,-48.1L72.2,-48.1L72.2,-80L60,-80L60,-48.1L35.2,-48.1L36.1,-37.5L60,-37.5L60,10L72.2,10L72.2,-37.5ZM26.1,-9.4C26.9,-12.8 27.2,-16.5 27.2,-21.3L27.2,-48C27.2,-52.5 24.7,-55 20.2,-55L4.8,-55L5.8,-44.6L13.9,-44.6C14.8,-44.6 15.4,-44 15.4,-43.1L15.4,-19.9C15.4,-14.1 15.1,-9.4 14.1,-4.2L11.8,-3.2L13.9,8.9L42.6,-3.7L42.6,-16.6L26.1,-9.4Z"></path><path transform="translate(500 100)" d="M92.4,-2.1L92.4,-80L80.2,-80L80.2,-5.9C80.2,-2.7 78.3,-0.8 74.9,-0.8C71.7,-0.8 67.2,-1.3 62.5,-2.4L65.2,8C71.1,9.1 76.1,9.6 80.2,9.6C86.9,9.6 92.4,4.3 92.4,-2.1ZM50.1,-61.9L45.1,-76.5L34,-76.5L39,-61.9L50.1,-61.9ZM71.7,-15.3L71.7,-70.7L59.9,-70.7L59.9,-15.3L71.7,-15.3ZM33.4,-10.1C43.3,-18.5 50.3,-28.4 54.4,-40.3L42.7,-40.3C39.8,-33.7 36,-28.1 31,-23C30,-30 29.2,-37.1 28.5,-44.7L54.2,-47.7L54.2,-58.2L27.8,-55.1C27.7,-57.2 27.6,-59.4 27.5,-61.6L26.7,-80L15.4,-80L16.3,-61C16.4,-58.6 16.6,-56.2 16.7,-53.8L3.5,-52.2L5.1,-41.9L17.5,-43.4C18.4,-33.8 19.6,-24.3 21.3,-15C16,-11.3 9.6,-8 2.1,-4.8L5.2,6.6C12.1,3.6 18.3,0.4 23.9,-3.2C24.2,-2 24.5,-0.8 24.8,0.4C27.9,12.1 39.6,11.8 52.5,5.6L54.4,-6.2C41.1,1.6 35.4,-1.2 34.1,-6.8C33.8,-7.9 33.6,-9 33.4,-10.1Z"></path><path transform="translate(0 200)" d="M53,-59.2L53,-71L2,-71L3.1,-59.2L21.4,-59.2L21.4,1L34.1,1L34.1,-59.2L53,-59.2Z"></path><path transform="translate(55 200)" d="M51.1,1L51.1,-33.8C51.1,-46 44.9,-52.2 34.1,-52.2C27.8,-52.2 23.3,-50 19.9,-44.3L20,-73L7.5,-73L7.5,1L19.8,1L19.8,-31.3C19.8,-38.2 23.5,-41.6 29.3,-41.6C35.4,-41.6 38.8,-38.5 38.8,-31.4L38.8,1L51.1,1Z"></path><path transform="translate(113 200)" d="M50.1,-22.1L50.1,-28C50.1,-42.6 43,-52.2 28.1,-52.2C11.8,-52.2 5,-41.6 5,-25.1C5,-6.8 12.3,2.2 28.7,2.2C35.9,2.2 42.1,1 47.8,-4.1L42.8,-12.6C39.2,-9.2 35.1,-7.9 30.4,-7.9C21.3,-7.9 17.3,-12.6 17.2,-22.1L50.1,-22.1ZM17.2,-30.7C17.3,-37.7 20.7,-42.3 27.7,-42.3C34.6,-42.3 38.2,-37.8 38.2,-30.7L17.2,-30.7Z"></path><path transform="translate(168 200)" d=""></path><path transform="translate(193 200)" d="M47.2,-16.7C42.9,-11.3 38.7,-10 33,-9.8C26.2,-9.8 20.9,-12.3 19.9,-21.7C19.1,-29.1 19.3,-40.5 19.6,-46.2C20.2,-56.5 25.1,-60 33,-60.3C38.5,-60.3 43.2,-58.6 46.4,-53.8L54,-63.8C48.3,-69.6 42,-72.2 33,-72.2C17.4,-72.2 7,-63.3 6.3,-47.4C5.9,-39.2 5.8,-28.4 6.6,-19.8C7.8,-6.5 18.6,2.2 33,2.2C42.3,2.2 49.7,-0.7 54.9,-7.1L47.2,-16.7Z"></path><path transform="translate(251 200)" d="M51.1,1L51.1,-33.8C51.1,-46 44.9,-52.2 34.1,-52.2C27.8,-52.2 23.3,-50 19.9,-44.3L20,-73L7.5,-73L7.5,1L19.8,1L19.8,-31.3C19.8,-38.2 23.5,-41.6 29.3,-41.6C35.4,-41.6 38.8,-38.5 38.8,-31.4L38.8,1L51.1,1Z"></path><path transform="translate(309 200)" d="M20,-72L7.3,-72L7.3,-60.1L20,-60.1L20,-72ZM19.8,1L19.8,-51L7.5,-51L7.5,1L19.8,1Z"></path><path transform="translate(336 200)" d="M51.1,1L51.1,-33.6C51.1,-45.8 43.9,-52.2 33.1,-52.2C27,-52.2 22.4,-49.7 19.9,-44.3L19,-51L7.5,-51L7.5,1L19.8,1L19.8,-31.5C19.8,-38.2 23.5,-41.5 29.3,-41.5C35.4,-41.5 38.8,-38.1 38.8,-31.4L38.8,1L51.1,1Z"></path><path transform="translate(394 200)" d="M50.1,-22.1L50.1,-28C50.1,-42.6 43,-52.2 28.1,-52.2C11.8,-52.2 5,-41.6 5,-25.1C5,-6.8 12.3,2.2 28.7,2.2C35.9,2.2 42.1,1 47.8,-4.1L42.8,-12.6C39.2,-9.2 35.1,-7.9 30.4,-7.9C21.3,-7.9 17.3,-12.6 17.2,-22.1L50.1,-22.1ZM17.2,-30.7C17.3,-37.7 20.7,-42.3 27.7,-42.3C34.6,-42.3 38.2,-37.8 38.2,-30.7L17.2,-30.7Z"></path><path transform="translate(449 200)" d="M23.3,-52.2C11.7,-52.2 2.7,-46.5 2.7,-35.6C2.7,-26.9 8,-22.1 17.4,-20.8L24.6,-19.6C28.8,-19 30.1,-16.7 30.1,-14.1C30.1,-10.2 26.9,-8.5 21.9,-8.5C17.9,-8.5 13,-9.3 7.9,-12.8L2.5,-3.4C8.7,1 15,2.1 21.7,2.1C34,2.1 42.3,-3.1 42.3,-14.6C42.3,-23.1 37.6,-28.4 27.3,-29.8L20.1,-30.8C16.2,-31.3 14.7,-33.6 14.7,-36.3C14.7,-38.9 16.9,-42 23.1,-42C27.7,-42 31.7,-40.4 35.3,-37.9L40.2,-47.1C34.5,-51.2 28.8,-52.2 23.3,-52.2Z"></path><path transform="translate(495 200)" d="M50.1,-22.1L50.1,-28C50.1,-42.6 43,-52.2 28.1,-52.2C11.8,-52.2 5,-41.6 5,-25.1C5,-6.8 12.3,2.2 28.7,2.2C35.9,2.2 42.1,1 47.8,-4.1L42.8,-12.6C39.2,-9.2 35.1,-7.9 30.4,-7.9C21.3,-7.9 17.3,-12.6 17.2,-22.1L50.1,-22.1ZM17.2,-30.7C17.3,-37.7 20.7,-42.3 27.7,-42.3C34.6,-42.3 38.2,-37.8 38.2,-30.7L17.2,-30.7Z"></path><path transform="translate(550 200)" d=""></path><path transform="translate(575 200)" d="M91.5,-71L77.7,-71L66.6,-19L53.9,-71L40.4,-71L27,-18.7L15.7,-71L0.9,-71L18.4,1L34.2,1L46.7,-50.1L58.7,1L73.9,1L91.5,-71Z"></path><path transform="translate(667 200)" d="M50.1,-22.1L50.1,-28C50.1,-42.6 43,-52.2 28.1,-52.2C11.8,-52.2 5,-41.6 5,-25.1C5,-6.8 12.3,2.2 28.7,2.2C35.9,2.2 42.1,1 47.8,-4.1L42.8,-12.6C39.2,-9.2 35.1,-7.9 30.4,-7.9C21.3,-7.9 17.3,-12.6 17.2,-22.1L50.1,-22.1ZM17.2,-30.7C17.3,-37.7 20.7,-42.3 27.7,-42.3C34.6,-42.3 38.2,-37.8 38.2,-30.7L17.2,-30.7Z"></path><path transform="translate(722 200)" d="M52.4,-24.9C52.4,-40.9 47.3,-52.2 31.8,-52.2C26.2,-52.2 22,-49.7 19.8,-44.8L19.8,-73L7.5,-73L7.5,1L18.5,1L19.3,-5.7C21.7,0.1 26.3,2.2 31.8,2.2C47.3,2.2 52.4,-9.3 52.4,-24.9ZM39.9,-24.9C39.9,-17 38.7,-8.5 29.8,-8.5C21.6,-8.5 20,-15.9 19.8,-24.9C19.8,-32.8 21.5,-41.4 29.8,-41.4C38.2,-41.4 39.9,-32.9 39.9,-24.9Z"></path><path transform="translate(779 200)" d=""></path><path transform="translate(804 200)" d="M53.7,-59.1L53.7,-71L8.5,-71L8.5,1L21.2,1L21.2,-28.1L51.7,-28.1L51.7,-39.8L21.2,-39.8L21.2,-59.1L53.7,-59.1Z"></path><path transform="translate(861 200)" d="M50.1,-25.1C50.1,-40.7 45.1,-52.2 27.5,-52.2C9.9,-52.2 5,-40.5 5,-25.1C5,-9.1 10.2,2.2 27.5,2.2C45,2.2 50.1,-9.1 50.1,-25.1ZM37.6,-25.1C37.6,-17.1 35.9,-8.6 27.5,-8.6C19.2,-8.6 17.5,-17.2 17.5,-25.1C17.5,-32.9 18.7,-41.5 27.5,-41.5C36.4,-41.5 37.6,-33 37.6,-25.1Z"></path><path transform="translate(916 200)" d="M51.1,1L51.1,-33.6C51.1,-45.8 43.9,-52.2 33.1,-52.2C27,-52.2 22.4,-49.7 19.9,-44.3L19,-51L7.5,-51L7.5,1L19.8,1L19.8,-31.5C19.8,-38.2 23.5,-41.5 29.3,-41.5C35.4,-41.5 38.8,-38.1 38.8,-31.4L38.8,1L51.1,1Z"></path><path transform="translate(974 200)" d="M32.6,-9.5L27.6,-9.5C23.7,-9.5 22.3,-11.1 22.3,-14.7L22.3,-40.8L32.6,-40.8L32.6,-51L22.3,-51L22.3,-66.6L10,-66.6L10,-51L2.2,-51L3.2,-40.8L10,-40.8L10,-14.2C10,-3.7 15.4,1 25.4,1L32.6,1L32.6,-9.5Z"></path><path transform="translate(1010 200)" d=""></path><path transform="translate(1035 200)" d="M33.2,-25C50.3,-25 59.3,-32.7 59.3,-48.2C59.3,-62.4 50.8,-71 33.8,-71L8.5,-71L8.5,1L21.2,1L21.2,-25L33.2,-25ZM33.3,-59.5C42,-59.5 46,-55.9 46,-48C46,-39.9 42.3,-36.4 33.3,-36.4L21.2,-36.4L21.2,-59.5L33.3,-59.5Z"></path><path transform="translate(1097 200)" d="M36.6,-51L32.5,-51C26.3,-51 21.7,-47.6 19.9,-41.9L19,-51L7.5,-51L7.5,1L19.7,1L19.7,-26.8C19.7,-36.2 24.5,-40.7 31.4,-40.7L36.6,-40.7L36.6,-51Z"></path><path transform="translate(1135 200)" d="M50.1,-25.1C50.1,-40.7 45.1,-52.2 27.5,-52.2C9.9,-52.2 5,-40.5 5,-25.1C5,-9.1 10.2,2.2 27.5,2.2C45,2.2 50.1,-9.1 50.1,-25.1ZM37.6,-25.1C37.6,-17.1 35.9,-8.6 27.5,-8.6C19.2,-8.6 17.5,-17.2 17.5,-25.1C17.5,-32.9 18.7,-41.5 27.5,-41.5C36.4,-41.5 37.6,-33 37.6,-25.1Z"></path><path transform="translate(1190 200)" d="M20,-72L7.3,-72L7.3,-60.1L20,-60.1L20,-72ZM19.8,-51L7.5,-51L7.5,5.1C7.5,8 6.2,9.5 3.1,9.5L-1.7,9.5L-1.7,20L5.3,20C14.6,20 19.8,14.4 19.8,5.8L19.8,-51Z"></path><path transform="translate(1217 200)" d="M50.1,-22.1L50.1,-28C50.1,-42.6 43,-52.2 28.1,-52.2C11.8,-52.2 5,-41.6 5,-25.1C5,-6.8 12.3,2.2 28.7,2.2C35.9,2.2 42.1,1 47.8,-4.1L42.8,-12.6C39.2,-9.2 35.1,-7.9 30.4,-7.9C21.3,-7.9 17.3,-12.6 17.2,-22.1L50.1,-22.1ZM17.2,-30.7C17.3,-37.7 20.7,-42.3 27.7,-42.3C34.6,-42.3 38.2,-37.8 38.2,-30.7L17.2,-30.7Z"></path><path transform="translate(1272 200)" d="M37.6,-13C35.2,-10.3 32.6,-8.6 27.9,-8.6C19.6,-8.6 17.5,-17.2 17.5,-25.1C17.5,-32.9 19.1,-41.5 27.9,-41.5C31.3,-41.5 34.7,-39.9 37.3,-37L42.9,-46.5C39.4,-49.8 34.7,-52.2 27.9,-52.2C10.3,-52.2 5,-40.5 5,-25.1C5,-9.1 10.6,2.2 27.9,2.2C35.3,2.2 39.7,-0 43.2,-3.8L37.6,-13Z"></path><path transform="translate(1318 200)" d="M32.6,-9.5L27.6,-9.5C23.7,-9.5 22.3,-11.1 22.3,-14.7L22.3,-40.8L32.6,-40.8L32.6,-51L22.3,-51L22.3,-66.6L10,-66.6L10,-51L2.2,-51L3.2,-40.8L10,-40.8L10,-14.2C10,-3.7 15.4,1 25.4,1L32.6,1L32.6,-9.5Z"></path></svg>