<svg xmlns="http://www.w3.org/2000/svg" xmlns:xlink="http://www.w3.org/1999/xlink" width="1405" height="200" viewBox="0 0 1429 224"><path transform="translate(0 100)" d="M50,9.6C52.9,9.6 54.3,8 54.3,4.8L54.3,-18.8L80,-18.8C87.3,-18.4 90.6,-21.8 90.6,-29.5L90.6,-51.3C91,-58.9 87.5,-62.5 80,-62L54.3,-62L54.3,-74.8C54.3,-78.1 52.9,-79.7 50,-79.7C47.1,-79.7 45.7,-78.1 45.7,-74.8L45.7,-62L21,-62C13.4,-62.5 10.4,-59 10.4,-51.3L10.4,-29.5C10,-22 13.5,-18.4 21,-18.8L45.7,-18.8L45.7,4.8C45.7,8 47.1,9.6 50,9.6ZM18.8,-32.2L18.8,-48.5C18.8,-53.2 20,-54.2 24.4,-54.2L45.7,-54.2L45.7,-26.7L24.4,-26.7C20,-26.7 18.8,-27.8 18.8,-32.2ZM54.3,-26.7L54.3,-54.2L76.5,-54.2C80.9,-54.2 82,-53.2 82,-48.5L82,-32.2C82,-27.8 80.9,-26.7 76.5,-26.7L54.3,-26.7Z"></path><path transform="translate(100 100)" d="M9.9,8.6C14.2,8.6 20.5,6.8 28.7,3.2C37.1,-0.4 44.2,-4.7 49.9,-9.8L50.1,-9.8C59.5,-2.3 71.6,3.4 86.4,7.4C87.2,7.7 89.2,8.2 90,8.2C92.9,8.2 94.3,6.6 94.3,3.3C94.3,1 92.5,-0.6 89,-1.4C76.1,-4.2 65.2,-8.9 56.2,-15.4L56.2,-15.6C65.6,-25.7 72.1,-39.4 75.8,-56.7L88.2,-56.7C91.5,-56.7 93.2,-58 93.2,-60.6C93.2,-63.3 91.5,-64.6 88.2,-64.6L53.8,-64.6L53.8,-74C53.8,-77.9 52.6,-79.5 49.5,-79.5C46.6,-79.5 45.2,-77.7 45.2,-74L45.2,-64.6L11.8,-64.6C8.4,-64.6 6.7,-63.3 6.7,-60.6C6.7,-58 8.4,-56.7 11.8,-56.7L66.8,-56.7C64.5,-41.9 58.9,-29.8 50.1,-20.3L49.9,-20.3C41.8,-28.2 36.1,-37.5 32.8,-48.4C32,-51.1 30.4,-52.4 28.3,-52.4C25.5,-52.4 24.1,-51.3 24.1,-49C24.1,-46.8 25.8,-42 29.2,-34.7C32.5,-27.5 37.4,-20.9 43.8,-14.9L43.8,-14.7C35.1,-8 24.3,-3.3 11.5,-0.6C7.5,0.3 5.7,1.7 5.7,4C5.7,7.1 7.1,8.6 9.9,8.6Z"></path><path transform="translate(200 100)" d="M14.3,9C16.9,9 18.2,7.4 18.2,4.3L18.2,-63C18.2,-65.9 19.7,-67.4 22.6,-67.4L78.4,-67.4C81.3,-67.4 82.8,-65.9 82.8,-63L82.8,-3.7C82.8,-0.8 81.4,0.6 78.7,0.6L72.4,0.6C69.3,0.6 67.7,1.9 67.7,4.6C67.7,7.3 69.3,8.7 72.4,8.7L80.2,8.7C87.7,9.1 91.1,5.6 90.6,-1.9L90.6,-65.4C91,-71.9 88,-74.9 81.3,-74.9L19.7,-74.9C13.2,-75.3 10.4,-72.2 10.4,-65.4L10.4,4.3C10.4,7.4 11.7,9 14.3,9ZM21.2,-6.6C21.2,-3.8 22.5,-2.4 25,-2.4C27.7,-2.4 31.8,-9.7 37.5,-24.2L37.7,-24.2C39.2,-21.1 40.2,-18.5 40.9,-16.6C42.2,-12.9 43.7,-11.1 45.4,-11.1C48.1,-11.1 49.4,-12.4 49.4,-15.1C49.4,-15.6 49,-16.9 48.2,-18.8C47.3,-20.7 46.2,-22.9 44.9,-25.4L43.1,-29.2L40.7,-34C41.9,-38.5 43,-43.4 44.1,-48.5C45.4,-54.2 46,-58 46,-60.1C46,-62.4 44.9,-63.6 42.6,-63.6C41.1,-63.6 40.1,-63 39.6,-61.8C39.1,-60.3 38.6,-57.6 38.1,-53.7C37.6,-49.5 36.9,-45.8 36,-42.5L33.3,-47.2L28.6,-54.6C27.4,-56.9 26.1,-58 24.7,-58C22.3,-58 21.2,-57 21.2,-54.9C21.2,-54.2 22.6,-51.7 25.3,-47.3C27.6,-43.5 30.3,-38.8 33.2,-33.1C30.7,-25.6 27.3,-18.3 23,-11.1C21.8,-9 21.2,-7.5 21.2,-6.6ZM47.2,-4.4C47.2,-1.7 48.4,-0.4 50.9,-0.4C54.6,-0.4 59.6,-8.1 65.9,-23.5L69.3,-16.3C70.8,-12.8 71.9,-10.7 72.6,-9.8C73.3,-8.8 74.2,-8.3 75.3,-8.3C77.8,-8.3 79.1,-9.6 79.1,-12.3C79.1,-14.1 77.3,-18.2 73.8,-24.6L69.3,-32.8C70.5,-36.5 71.8,-41.4 73.1,-47.5C74.8,-54.7 75.6,-58.9 75.6,-60.2C75.6,-62.5 74.4,-63.7 71.9,-63.7C69.8,-63.7 68.6,-62.2 68.2,-59.2C67.1,-51.6 65.9,-45.6 64.6,-41.3L64.4,-41.2C57.5,-52.3 53.2,-57.9 51.5,-57.9C49.1,-57.9 47.9,-56.8 47.9,-54.7C47.9,-54 49.4,-51.3 52.4,-46.7C55.6,-41.9 58.6,-36.9 61.4,-31.8C57.5,-21.6 53.3,-13.6 48.6,-7.7C47.7,-6.6 47.2,-5.5 47.2,-4.4Z"></path><path transform="translate(300 100)" d="M37.1,9L43.9,9C51.6,9 54.9,5.7 54.9,-2.1L54.9,-19L88.7,-19C92,-19 93.4,-20.1 93.4,-22.7C93.4,-25.3 92,-26.4 88.7,-26.4L54.9,-26.4L54.9,-29.7C54.9,-31.1 55.7,-32.2 57.6,-33.4C61.8,-36 67.7,-39.1 77.1,-43.8C79.4,-45 80.4,-46.4 80.4,-48.3C80.4,-51 78.3,-52.2 73.3,-52.2L23.4,-52.2C20.7,-52.2 19.5,-51.2 19.5,-48.7C19.5,-46.2 20.7,-45.2 23.4,-45.2L63.8,-45.2C64.3,-45.2 64.5,-45.1 64.5,-44.7C64.5,-44.5 64.1,-44.1 63,-43.6C55,-39.7 57.9,-41.2 50,-37.3C49.5,-37 49.2,-36.8 48.9,-36.5C47.5,-35.1 46.9,-33.3 46.9,-30.6L46.9,-26.4L11.3,-26.4C8,-26.4 6.6,-25.3 6.6,-22.7C6.6,-20.1 8,-19 11.3,-19L46.9,-19L46.9,-3.1C46.9,-0.4 45.8,0.7 43.1,0.7L37.1,0.7C33.9,0.7 32.5,2 32.5,4.9C32.5,7.8 33.9,9 37.1,9ZM7.5,-49.5C7.5,-46.2 8.7,-44.8 11.5,-44.8C14.3,-44.8 15.5,-46.2 15.5,-49.5L15.5,-56.3C15.5,-59.6 16.9,-61 20.3,-61L79.6,-61C83,-61 84.5,-59.6 84.5,-56.3L84.5,-49.5C84.5,-46.2 85.7,-44.8 88.4,-44.8C91.2,-44.8 92.4,-46.2 92.4,-49.5L92.4,-56.9C92.4,-65 89.6,-68.5 82.9,-68.5L54.3,-68.5L54.3,-74.4C54.3,-77.9 53,-79.4 50,-79.4C46.9,-79.4 45.6,-77.9 45.6,-74.4L45.6,-68.5L17,-68.5C10.3,-68.5 7.5,-65 7.5,-56.9L7.5,-49.5Z"></path><path transform="translate(400 100)" d="M66.2,9.4C69,9.4 70.4,7.7 70.4,4.4L70.4,-39.8L89.7,-39.8C92.8,-39.8 94.4,-41.2 94.4,-43.9C94.4,-46.6 92.8,-48 89.7,-48L70.4,-48L70.4,-74.3C70.4,-77.7 69,-79.4 66.2,-79.4C63.4,-79.4 61.9,-77.6 61.9,-74.3L61.9,-48L43.2,-48C40.1,-48 38.5,-46.6 38.5,-43.9C38.5,-41.2 40.1,-39.8 43.2,-39.8L61.9,-39.8L61.9,4.4C61.9,7.7 63.3,9.4 66.2,9.4ZM5.8,-46.5C5.8,-43.8 7.1,-42.4 9.7,-42.4L20.2,-42.4C22.4,-42.4 23.5,-41.3 23.5,-39.2L23.5,-3C22.5,-2.5 21.4,-2 20.2,-1.5C18,-0.4 16.9,1 16.9,2.7C16.9,5.4 18.1,6.8 20.4,6.8C21.9,6.8 24.1,6.1 26.8,4.6C29.9,2.9 32.5,1.4 35.2,-0.1L38.9,-2.2C40.2,-2.9 41.5,-3.7 42.9,-4.5C44.4,-5.4 45.4,-6.2 46,-6.7C46.8,-7.5 47.2,-8.4 47.2,-9.3C47.2,-11.4 46.1,-12.5 43.9,-12.5C43.2,-12.5 42.5,-12.3 42,-12C40.1,-10.9 38.2,-10 36.3,-9.2L31.2,-6.5L31.2,-41.7C31.2,-47.6 28.5,-50.6 23,-50.6L9.7,-50.6C7.1,-50.6 5.8,-49.2 5.8,-46.5ZM14.2,-74.5C14.2,-73.4 14.9,-72.2 16.4,-70.8C19.3,-68.1 22,-64.8 25.7,-60.3C26.8,-58.8 28,-58 29.1,-58C31.8,-58 33.2,-59.3 33.2,-62C33.2,-63.2 32.6,-64.6 31.3,-66.1C28.2,-69.7 25.1,-72.8 22.8,-75.1C20.5,-77.2 18.8,-78.2 17.7,-78.2C15.4,-78.2 14.2,-77 14.2,-74.5Z"></path><path transform="translate(500 100)" d="M56.3,7.3C60.4,7 62.5,2.9 62.5,-4.9C62.5,-7.4 62.3,-10 62,-12.8C61.7,-15.7 60.8,-16.9 58.1,-16.9C56,-16.9 55,-15.5 55,-12.8L55.1,-10.4C55.2,-9.5 55.3,-8.7 55.3,-7.9C55.6,-4 54.9,-2.1 53.2,-2.2C49.1,-2.4 44.3,-6.6 39,-14.7C42.2,-18.6 45.3,-23.4 48.4,-29C51.3,-34 52.7,-37.4 52.7,-39.2C52.7,-41.5 51.6,-42.8 49.2,-42.8C47.3,-42.8 45.9,-41.6 44.8,-39.3C41.5,-32.2 38.3,-26.6 35.4,-22.6C32.5,-30.1 30.5,-38.2 29.5,-47.1L29.7,-47.1L54,-49.5C56.8,-49.8 58.4,-51.4 58.4,-53.5C58.4,-56.2 56.8,-57.4 54.1,-57.1C45.2,-56.2 36.7,-55.3 28.8,-54.6L28.2,-64.8C28.1,-68.7 27.9,-71.5 27.8,-73.2C27.7,-76.3 26.2,-77.8 23.8,-77.8C20.9,-77.8 19.6,-75.9 19.7,-72C19.9,-66 20.3,-60 20.9,-53.9L9.8,-52.9C7.2,-52.7 5.9,-51.4 5.9,-49.1C5.9,-46.4 6.9,-45.3 9.6,-45.3C10.7,-45.3 13.7,-45.6 18.4,-46.1L21.8,-46.5C23.5,-33.2 26.2,-23 29.7,-15.7C24.4,-10.2 19,-6.2 13.7,-3.7L8.8,-1.5C7.5,-0.4 6.9,0.6 6.9,2.1C6.9,5 8.1,6.5 10.6,6.5C13.1,6.5 16.8,4.8 21.7,1.3C26.7,-2.4 30.7,-5.7 33.7,-8.8C40.4,1.2 47.8,8 56.3,7.3ZM35.1,-72.8C35.1,-71.5 35.8,-70.1 37.2,-68.7L39.6,-66.3L42.5,-63.7C43.8,-62.3 45.1,-61.6 46.2,-61.6C48.1,-61.6 49.5,-63 49.5,-64.9C49.5,-67.2 48.1,-68.8 44.2,-72.3C41.7,-74.6 39.8,-75.7 38.6,-75.7C36.9,-75.7 35.1,-74.1 35.1,-72.8ZM63.6,-19.5C63.6,-16.3 64.9,-14.7 67.5,-14.7C70.1,-14.7 71.4,-16.3 71.4,-19.5L71.4,-67.2C71.4,-70.5 70.1,-72 67.4,-72C64.9,-72 63.6,-70.4 63.6,-67.2L63.6,-19.5ZM67.8,4.6C67.8,7.4 69.4,8.8 72.7,8.8L79.2,8.8C86.6,9.2 90.1,5.6 89.6,-1.9L89.6,-73.3C89.6,-76.5 88.3,-78.1 85.7,-78.1C83,-78.1 81.7,-76.5 81.7,-73.3L81.7,-4.2C81.7,-1.1 80.2,0.4 77.1,0.4L72.7,0.4C69.4,0.4 67.8,1.8 67.8,4.6Z"></path><path transform="translate(0 200)" d="M29.7,0.6C32.1,0.6 34.3,-1.5 34.3,-3.9L34.3,-59.8L54,-59.8C56.4,-59.8 58.3,-61.6 58.3,-64C58.3,-66.3 56.4,-68.3 54,-68.3L5.4,-68.3C3,-68.3 1.2,-66.3 1.2,-64C1.2,-61.6 3,-59.8 5.4,-59.8L25.2,-59.8L25.2,-3.9C25.2,-1.5 27.2,0.6 29.7,0.6Z"></path><path transform="translate(58 200)" d="M12.1,0.6C14.6,0.6 16.7,-1.5 16.7,-3.9L16.7,-33.2C21.6,-39.3 26.3,-42.5 32.6,-42.5C39.7,-42.5 43.3,-38.6 43.3,-30.7L43.3,-3.9C43.3,-1.5 45.3,0.6 47.8,0.6C50.2,0.6 52.3,-1.5 52.3,-3.9L52.3,-31.6C52.3,-38.8 49.4,-45 44.2,-48.3C41.5,-50 38.3,-50.9 34.8,-50.9C27.5,-50.9 22,-47.8 16.7,-42.1L16.7,-67.3C16.7,-69.7 14.6,-71.9 12.1,-71.9C9.7,-71.9 7.6,-69.7 7.6,-67.3L7.6,-3.9C7.6,-1.5 9.7,0.6 12.1,0.6Z"></path><path transform="translate(117 200)" d="M30,1.1C37.3,1.1 41.6,-0.3 47.1,-3.2C48.8,-4.2 49.7,-5.4 49.7,-6.9C49.7,-9.2 47.8,-10.8 45.7,-10.8C45,-10.8 44.4,-10.7 43.9,-10.4C39.8,-8.4 36,-7.4 30.8,-7.4C20.8,-7.4 14.9,-12.4 13.8,-21.7L46.8,-21.7C49.5,-21.7 51.4,-23.7 51.4,-26.2C51.4,-35.3 47.4,-43.1 40.6,-47.6C37.1,-49.8 32.9,-50.9 28,-50.9C18,-50.9 10.7,-45.8 7.1,-37.7C5.4,-33.6 4.6,-29.3 4.6,-24.9C4.6,-8.5 14,1.1 30,1.1ZM13.8,-29.1C14.2,-35 17,-39.4 21.5,-41.7C23.8,-42.7 25.9,-43.2 28,-43.2C32.5,-43.2 37.1,-41 39.9,-36.9C41.2,-35.2 42,-33 42.3,-30.4C42.4,-29.5 42,-29.1 41.1,-29.1L13.8,-29.1Z"></path><path transform="translate(172 200)" d=""></path><path transform="translate(201 200)" d="M39.6,1.1C48.1,1.1 54.5,-0.9 61.8,-5C63.3,-5.8 64.1,-7.1 64.1,-8.8C64.1,-10.9 62.4,-12.6 60.1,-12.6C59.4,-12.6 58.8,-12.5 58.3,-12.2C52.3,-9.1 47.3,-7.6 40.4,-7.6C29.6,-7.6 21.4,-12.4 17.4,-20.5C15.4,-24.4 14.4,-28.9 14.4,-34.1C14.4,-44.5 18.6,-52.6 26.3,-57.1C30.1,-59.4 34.8,-60.5 40.4,-60.5C47.3,-60.5 52.3,-59.1 58.3,-56C58.8,-55.7 59.4,-55.6 60.1,-55.6C62.4,-55.6 64.1,-57.4 64.1,-59.4C64.1,-61.2 63.3,-62.5 61.8,-63.2C54.5,-67.3 48.1,-69.2 39.6,-69.2C26.4,-69.2 15.7,-63.2 9.8,-52.7C6.8,-47.4 5.3,-41.2 5.3,-34.1C5.3,-20 11.6,-8.9 22.1,-3.2C27.2,-0.3 33.1,1.1 39.6,1.1Z"></path><path transform="translate(269 200)" d="M12.1,0.6C14.6,0.6 16.7,-1.5 16.7,-3.9L16.7,-33.2C21.6,-39.3 26.3,-42.5 32.6,-42.5C39.7,-42.5 43.3,-38.6 43.3,-30.7L43.3,-3.9C43.3,-1.5 45.3,0.6 47.8,0.6C50.2,0.6 52.3,-1.5 52.3,-3.9L52.3,-31.6C52.3,-38.8 49.4,-45 44.2,-48.3C41.5,-50 38.3,-50.9 34.8,-50.9C27.5,-50.9 22,-47.8 16.7,-42.1L16.7,-67.3C16.7,-69.7 14.6,-71.9 12.1,-71.9C9.7,-71.9 7.6,-69.7 7.6,-67.3L7.6,-3.9C7.6,-1.5 9.7,0.6 12.1,0.6Z"></path><path transform="translate(328 200)" d="M11.9,-59.9L12.5,-59.9C15.3,-59.9 17.6,-62.2 17.6,-64.9L17.6,-65.3C17.6,-68.1 15.3,-70.4 12.5,-70.4L11.9,-70.4C9.2,-70.4 6.8,-68.1 6.8,-65.3L6.8,-64.9C6.8,-62.2 9.2,-59.9 11.9,-59.9ZM7.6,-3.9C7.6,-1.5 9.7,0.6 12.1,0.6C14.6,0.6 16.7,-1.5 16.7,-3.9L16.7,-45.8C16.7,-48.5 14.8,-50.4 12.1,-50.4C9.7,-50.4 7.6,-48.3 7.6,-45.8L7.6,-3.9Z"></path><path transform="translate(352 200)" d="M12.1,0.6C14.6,0.6 16.7,-1.5 16.7,-3.9L16.7,-33.2C21.6,-39.3 26.3,-42.5 32.6,-42.5C39.7,-42.5 43.3,-38.6 43.3,-30.7L43.3,-3.9C43.3,-1.5 45.3,0.6 47.8,0.6C50.2,0.6 52.3,-1.5 52.3,-3.9L52.3,-31.6C52.3,-38.8 49.4,-45 44.2,-48.3C41.5,-50 38.3,-50.9 34.8,-50.9C27.5,-50.9 22,-47.8 16.7,-42.1L16.7,-45.8C16.7,-48.3 14.6,-50.4 12.1,-50.4C9.7,-50.4 7.6,-48.3 7.6,-45.8L7.6,-3.9C7.6,-1.5 9.7,0.6 12.1,0.6Z"></path><path transform="translate(411 200)" d="M30,1.1C37.3,1.1 41.6,-0.3 47.1,-3.2C48.8,-4.2 49.7,-5.4 49.7,-6.9C49.7,-9.2 47.8,-10.8 45.7,-10.8C45,-10.8 44.4,-10.7 43.9,-10.4C39.8,-8.4 36,-7.4 30.8,-7.4C20.8,-7.4 14.9,-12.4 13.8,-21.7L46.8,-21.7C49.5,-21.7 51.4,-23.7 51.4,-26.2C51.4,-35.3 47.4,-43.1 40.6,-47.6C37.1,-49.8 32.9,-50.9 28,-50.9C18,-50.9 10.7,-45.8 7.1,-37.7C5.4,-33.6 4.6,-29.3 4.6,-24.9C4.6,-8.5 14,1.1 30,1.1ZM13.8,-29.1C14.2,-35 17,-39.4 21.5,-41.7C23.8,-42.7 25.9,-43.2 28,-43.2C32.5,-43.2 37.1,-41 39.9,-36.9C41.2,-35.2 42,-33 42.3,-30.4C42.4,-29.5 42,-29.1 41.1,-29.1L13.8,-29.1Z"></path><path transform="translate(466 200)" d="M23.8,1.1C35.5,1.1 42.8,-5 42.8,-13.5C42.8,-19.9 39.2,-24.1 33.9,-26.2C31.2,-27.1 28,-28.1 24.5,-29C20.7,-29.9 17.9,-30.8 16,-31.6C14.3,-32.5 13.4,-33.9 13.4,-35.8C13.4,-39.9 17.7,-42.6 24.5,-42.6C28,-42.6 31.7,-42 35.6,-40.8L36.9,-40.6C39.2,-40.6 40.9,-42.6 40.9,-44.6C40.9,-46.3 39.9,-47.9 38,-48.4C33.7,-50.1 29,-50.9 23.8,-50.9C11.8,-50.9 4.7,-44.6 4.7,-35.4C4.7,-29.3 8.4,-25 14,-22.9C16.5,-21.9 19.7,-21 23.4,-20.1C27.3,-19.2 30,-18.3 31.6,-17.5C33.2,-16.7 34,-15.6 34,-14.2C34,-9.6 30.4,-7.3 23.2,-7.3C18.3,-7.3 14.4,-8.3 10,-10.3C9.5,-10.5 8.9,-10.6 8.2,-10.6C5.9,-10.6 4.3,-8.7 4.3,-6.6C4.3,-5.2 4.9,-4.1 6,-3.3C11.5,-0.4 17.4,1.1 23.8,1.1Z"></path><path transform="translate(513 200)" d="M30,1.1C37.3,1.1 41.6,-0.3 47.1,-3.2C48.8,-4.2 49.7,-5.4 49.7,-6.9C49.7,-9.2 47.8,-10.8 45.7,-10.8C45,-10.8 44.4,-10.7 43.9,-10.4C39.8,-8.4 36,-7.4 30.8,-7.4C20.8,-7.4 14.9,-12.4 13.8,-21.7L46.8,-21.7C49.5,-21.7 51.4,-23.7 51.4,-26.2C51.4,-35.3 47.4,-43.1 40.6,-47.6C37.1,-49.8 32.9,-50.9 28,-50.9C18,-50.9 10.7,-45.8 7.1,-37.7C5.4,-33.6 4.6,-29.3 4.6,-24.9C4.6,-8.5 14,1.1 30,1.1ZM13.8,-29.1C14.2,-35 17,-39.4 21.5,-41.7C23.8,-42.7 25.9,-43.2 28,-43.2C32.5,-43.2 37.1,-41 39.9,-36.9C41.2,-35.2 42,-33 42.3,-30.4C42.4,-29.5 42,-29.1 41.1,-29.1L13.8,-29.1Z"></path><path transform="translate(568 200)" d=""></path><path transform="translate(597 200)" d="M27.9,0.6C30.7,0.6 33,-1.4 33.8,-3.9L48.7,-51.2C48.9,-51.7 49.1,-52 49.4,-52C49.7,-52 49.9,-51.7 50.1,-51.2L65,-3.9C65.8,-1.4 68.1,0.6 70.9,0.6C73.6,0.6 75.7,-1.1 76.8,-3.9L95.9,-62.7C96.1,-63.5 96.2,-64.1 96.2,-64.6C96.2,-66.9 94.3,-68.8 91.8,-68.8C89.7,-68.8 88,-67.4 87.3,-65.1L71.7,-13.9C71.5,-13.4 71.3,-13.1 71,-13.1C70.7,-13.1 70.5,-13.4 70.3,-13.9L54.6,-64.9C53.9,-67.3 51.8,-68.8 49.4,-68.8C47.1,-68.8 44.9,-67.3 44.2,-64.9L28.5,-13.9C28.3,-13.4 28.1,-13.1 27.8,-13.1C27.5,-13.1 27.3,-13.4 27.1,-13.9L11.5,-65.1C10.8,-67.4 9.1,-68.8 7,-68.8C4.6,-68.8 2.6,-66.9 2.6,-64.6C2.6,-64.1 2.7,-63.5 2.9,-62.7L22.1,-3.9C23.2,-1.1 25.2,0.6 27.9,0.6Z"></path><path transform="translate(692 200)" d="M30,1.1C37.3,1.1 41.6,-0.3 47.1,-3.2C48.8,-4.2 49.7,-5.4 49.7,-6.9C49.7,-9.2 47.8,-10.8 45.7,-10.8C45,-10.8 44.4,-10.7 43.9,-10.4C39.8,-8.4 36,-7.4 30.8,-7.4C20.8,-7.4 14.9,-12.4 13.8,-21.7L46.8,-21.7C49.5,-21.7 51.4,-23.7 51.4,-26.2C51.4,-35.3 47.4,-43.1 40.6,-47.6C37.1,-49.8 32.9,-50.9 28,-50.9C18,-50.9 10.7,-45.8 7.1,-37.7C5.4,-33.6 4.6,-29.3 4.6,-24.9C4.6,-8.5 14,1.1 30,1.1ZM13.8,-29.1C14.2,-35 17,-39.4 21.5,-41.7C23.8,-42.7 25.9,-43.2 28,-43.2C32.5,-43.2 37.1,-41 39.9,-36.9C41.2,-35.2 42,-33 42.3,-30.4C42.4,-29.5 42,-29.1 41.1,-29.1L13.8,-29.1Z"></path><path transform="translate(747 200)" d="M33.3,1.1C41.7,1.1 49.3,-3.4 53.7,-11.1C55.9,-15 57,-19.6 57,-24.9C57,-35.2 52.4,-43.6 44.8,-47.9C41.3,-49.9 37.5,-50.9 33.3,-50.9C26.9,-50.9 21.4,-48.5 16.7,-43.6L16.7,-67.3C16.7,-69.8 14.8,-71.9 12.1,-71.9C9.7,-71.9 7.6,-69.7 7.6,-67.3L7.6,-3.9C7.6,-1.5 9.7,0.6 12.1,0.6C14.6,0.6 16.7,-1.5 16.7,-3.9L16.7,-6.3C21.4,-1.4 26.9,1.1 33.3,1.1ZM16.7,-14.6L16.7,-35.2C20.8,-39.6 26.3,-42.4 32,-42.4C42,-42.4 47.9,-35.8 47.9,-24.9C47.9,-14 42,-7.4 32,-7.4C26.3,-7.4 20.8,-10.2 16.7,-14.6Z"></path><path transform="translate(809 200)" d=""></path><path transform="translate(838 200)" d="M13.9,0.6C16.3,0.6 18.5,-1.5 18.5,-3.9L18.5,-29.9L48.4,-29.9C50.8,-29.9 52.7,-31.7 52.7,-34.1C52.7,-36.4 50.8,-38.4 48.4,-38.4L18.5,-38.4L18.5,-58.6C18.5,-59.4 18.9,-59.8 19.6,-59.8L51.9,-59.8C54.2,-59.8 56.2,-61.6 56.2,-64C56.2,-66.3 54.2,-68.3 51.9,-68.3L13.9,-68.3C11.4,-68.3 9.4,-66.1 9.4,-63.7L9.4,-3.9C9.4,-1.5 11.4,0.6 13.9,0.6Z"></path><path transform="translate(893 200)" d="M29.7,1.1C39.4,1.1 47.3,-3.4 51.7,-11.4C53.8,-15.3 54.8,-19.8 54.8,-24.9C54.8,-35 50.4,-43.2 42.8,-47.7C39,-49.8 34.6,-50.9 29.7,-50.9C19.8,-50.9 11.8,-46.4 7.7,-38.5C5.6,-34.5 4.6,-30 4.6,-24.9C4.6,-14.9 8.9,-6.6 16.5,-2.1C20.3,-0 24.7,1.1 29.7,1.1ZM13.7,-25C13.7,-32.9 16.9,-38.3 22,-40.8C24.5,-42 27,-42.6 29.7,-42.6C35.6,-42.6 40.5,-39.9 43.4,-35C44.9,-32.5 45.7,-29.1 45.7,-25C45.7,-17.1 42.5,-11.6 37.4,-9.1C34.9,-7.8 32.4,-7.2 29.7,-7.2C23.8,-7.2 18.9,-9.8 16,-14.9C14.5,-17.5 13.7,-20.9 13.7,-25Z"></path><path transform="translate(952 200)" d="M12.1,0.6C14.6,0.6 16.7,-1.5 16.7,-3.9L16.7,-33.2C21.6,-39.3 26.3,-42.5 32.6,-42.5C39.7,-42.5 43.3,-38.6 43.3,-30.7L43.3,-3.9C43.3,-1.5 45.3,0.6 47.8,0.6C50.2,0.6 52.3,-1.5 52.3,-3.9L52.3,-31.6C52.3,-38.8 49.4,-45 44.2,-48.3C41.5,-50 38.3,-50.9 34.8,-50.9C27.5,-50.9 22,-47.8 16.7,-42.1L16.7,-45.8C16.7,-48.3 14.6,-50.4 12.1,-50.4C9.7,-50.4 7.6,-48.3 7.6,-45.8L7.6,-3.9C7.6,-1.5 9.7,0.6 12.1,0.6Z"></path><path transform="translate(1010 200)" d="M31.7,-7.8C31.3,-7.8 30.8,-7.7 30.1,-7.6C30,-7.5 29.9,-7.5 29.8,-7.5C28.5,-7.1 27.2,-6.9 25.9,-6.9C21.8,-6.9 19.6,-8.2 19.6,-12.7L19.6,-41.6L30.6,-41.6C32.7,-41.6 34.5,-43.4 34.5,-45.5C34.5,-47.8 32.7,-49.4 30.6,-49.4L19.6,-49.4L19.6,-56.3C19.6,-59.2 18,-60.9 15.1,-60.9C12.3,-60.9 10.5,-59.4 10.5,-56.3L10.5,-49.4L5.7,-49.4C3.2,-49.4 1.8,-48 1.8,-45.5C1.8,-43.1 3.2,-41.6 5.7,-41.6L10.5,-41.6L10.5,-11.9C10.5,-3.2 15.3,1.1 24.9,1.1C27.8,1.1 30.5,0.5 33,-0.7C34.6,-1.6 35.4,-2.7 35.4,-4.2C35.4,-6.2 33.7,-7.8 31.7,-7.8Z"></path><path transform="translate(1047 200)" d=""></path><path transform="translate(1076 200)" d="M13.9,0.6C16.3,0.6 18.5,-1.5 18.5,-3.9L18.5,-24.7L36.1,-24.7C48.1,-24.7 56.2,-29.1 59.8,-35.9C61.5,-39.1 62.3,-42.6 62.3,-46.5C62.3,-54.8 58.5,-61.2 51.3,-65.1C47.3,-67.2 42.2,-68.3 36.1,-68.3L13.9,-68.3C11.4,-68.3 9.4,-66.1 9.4,-63.7L9.4,-3.9C9.4,-1.5 11.4,0.6 13.9,0.6ZM18.5,-33.3L18.5,-58.5C18.5,-59.3 18.9,-59.7 19.6,-59.7L35.3,-59.7C47,-59.7 53.2,-55 53.2,-46.5C53.2,-37.8 47,-33.3 35.3,-33.3L18.5,-33.3Z"></path><path transform="translate(1141 200)" d="M12.1,0.6C14.6,0.6 16.7,-1.5 16.7,-3.9L16.7,-33.6C20.3,-39.1 25.6,-42.1 31.7,-42.1L32.2,-42.1C34.9,-42.1 36.8,-43.9 36.8,-46.4C36.8,-48.8 34.9,-50.9 32.4,-50.9L31.9,-50.9C26.2,-50.9 21.2,-47.9 16.7,-41.9L16.7,-45.8C16.7,-48.3 14.6,-50.4 12.1,-50.4C9.7,-50.4 7.6,-48.3 7.6,-45.8L7.6,-3.9C7.6,-1.5 9.7,0.6 12.1,0.6Z"></path><path transform="translate(1177 200)" d="M29.7,1.1C39.4,1.1 47.3,-3.4 51.7,-11.4C53.8,-15.3 54.8,-19.8 54.8,-24.9C54.8,-35 50.4,-43.2 42.8,-47.7C39,-49.8 34.6,-50.9 29.7,-50.9C19.8,-50.9 11.8,-46.4 7.7,-38.5C5.6,-34.5 4.6,-30 4.6,-24.9C4.6,-14.9 8.9,-6.6 16.5,-2.1C20.3,-0 24.7,1.1 29.7,1.1ZM13.7,-25C13.7,-32.9 16.9,-38.3 22,-40.8C24.5,-42 27,-42.6 29.7,-42.6C35.6,-42.6 40.5,-39.9 43.4,-35C44.9,-32.5 45.7,-29.1 45.7,-25C45.7,-17.1 42.5,-11.6 37.4,-9.1C34.9,-7.8 32.4,-7.2 29.7,-7.2C23.8,-7.2 18.9,-9.8 16,-14.9C14.5,-17.5 13.7,-20.9 13.7,-25Z"></path><path transform="translate(1236 200)" d="M12.4,-59.9L13,-59.9C15.7,-59.9 18.1,-62.2 18.1,-64.9L18.1,-65.3C18.1,-68.1 15.7,-70.4 13,-70.4L12.4,-70.4C9.7,-70.4 7.3,-68.1 7.3,-65.3L7.3,-64.9C7.3,-62.2 9.7,-59.9 12.4,-59.9ZM-4.5,19C-4.5,20.7 -3.5,22.2 -1.9,22.7C-0.1,23.2 2,23.5 4.3,23.5C12.7,23.5 17.2,18.8 17.2,10.1L17.2,-45.7C17.2,-48.4 15.3,-50.3 12.6,-50.3C10.1,-50.3 8.1,-48.2 8.1,-45.7L8.1,9.9C8.1,14.3 6.6,15.5 2.2,15.5C1.7,15.5 1.2,15.5 0.8,15.4L0.5,15.4L-0.7,15.2C-2.7,15.2 -4.5,17.1 -4.5,19Z"></path><path transform="translate(1261 200)" d="M30,1.1C37.3,1.1 41.6,-0.3 47.1,-3.2C48.8,-4.2 49.7,-5.4 49.7,-6.9C49.7,-9.2 47.8,-10.8 45.7,-10.8C45,-10.8 44.4,-10.7 43.9,-10.4C39.8,-8.4 36,-7.4 30.8,-7.4C20.8,-7.4 14.9,-12.4 13.8,-21.7L46.8,-21.7C49.5,-21.7 51.4,-23.7 51.4,-26.2C51.4,-35.3 47.4,-43.1 40.6,-47.6C37.1,-49.8 32.9,-50.9 28,-50.9C18,-50.9 10.7,-45.8 7.1,-37.7C5.4,-33.6 4.6,-29.3 4.6,-24.9C4.6,-8.5 14,1.1 30,1.1ZM13.8,-29.1C14.2,-35 17,-39.4 21.5,-41.7C23.8,-42.7 25.9,-43.2 28,-43.2C32.5,-43.2 37.1,-41 39.9,-36.9C41.2,-35.2 42,-33 42.3,-30.4C42.4,-29.5 42,-29.1 41.1,-29.1L13.8,-29.1Z"></path><path transform="translate(1316 200)" d="M30.8,1.1C37.2,1.1 41.9,-0.7 46.8,-3.6C48.1,-4.5 48.7,-5.7 48.7,-7.1C48.7,-9.1 46.9,-11.1 44.9,-11.1C44.2,-11.1 43.5,-10.9 42.8,-10.5C38.3,-8.2 36,-7.4 31.5,-7.4C20.6,-7.4 13.7,-14.2 13.7,-24.9C13.7,-35.6 20.6,-42.4 31.5,-42.4C36,-42.4 38.3,-41.6 42.8,-39.3C43.5,-38.9 44.2,-38.7 44.9,-38.7C46.9,-38.7 48.7,-40.7 48.7,-42.7C48.7,-44.1 48.1,-45.3 46.8,-46.2C41.9,-49.1 37.2,-50.9 30.8,-50.9C21.1,-50.9 12.9,-46.4 8.2,-38.8C5.8,-34.8 4.6,-30.2 4.6,-24.9C4.6,-14.6 9.5,-6.4 17.8,-2.1C21.8,-0 26.1,1.1 30.8,1.1Z"></path><path transform="translate(1368 200)" d="M31.7,-7.8C31.3,-7.8 30.8,-7.7 30.1,-7.6C30,-7.5 29.9,-7.5 29.8,-7.5C28.5,-7.1 27.2,-6.9 25.9,-6.9C21.8,-6.9 19.6,-8.2 19.6,-12.7L19.6,-41.6L30.6,-41.6C32.7,-41.6 34.5,-43.4 34.5,-45.5C34.5,-47.8 32.7,-49.4 30.6,-49.4L19.6,-49.4L19.6,-56.3C19.6,-59.2 18,-60.9 15.1,-60.9C12.3,-60.9 10.5,-59.4 10.5,-56.3L10.5,-49.4L5.7,-49.4C3.2,-49.4 1.8,-48 1.8,-45.5C1.8,-43.1 3.2,-41.6 5.7,-41.6L10.5,-41.6L10.5,-11.9C10.5,-3.2 15.3,1.1 24.9,1.1C27.8,1.1 30.5,0.5 33,-0.7C34.6,-1.6 35.4,-2.7 35.4,-4.2C35.4,-6.2 33.7,-7.8 31.7,-7.8Z"></path></svg>